<svg version="1.2" baseProfile="tiny-ps" xmlns="http://www.w3.org/2000/svg" viewBox="0 0 2048 2048" width="2048" height="2048"><title>logo</title><style>tspan { white-space:pre }.shp0 { fill: #fc4204 } .shp1 { fill: #faf00b } .shp2 { fill: #fbe706 } .shp3 { fill: #fbfaf9 } </style><g id="Background"><path id="Path 2" class="shp0" d="M860.5 284.13C869.93 284.05 881.22 284.61 888 285.51C894.33 286.34 902.42 287.73 906 288.59C909.58 289.45 916.77 291.51 922 293.17C927.23 294.82 935.77 298.02 941 300.28C946.23 302.53 951.74 305.19 953.25 306.19C954.76 307.19 956.34 308.01 956.75 308.01C957.16 308.02 961.78 310.83 967.01 314.26C972.25 317.69 979.43 322.75 982.98 325.5C986.52 328.25 992.53 333.43 996.33 337C1000.13 340.57 1006.45 347.33 1010.37 352.01C1014.29 356.69 1018.87 362.31 1020.55 364.51C1022.22 366.7 1025.57 371.65 1027.99 375.5C1030.4 379.35 1033.92 385.43 1035.8 389C1037.68 392.57 1040.8 399.32 1042.73 404C1044.66 408.68 1047.55 416.77 1049.15 422C1050.75 427.23 1052.74 434.88 1053.58 439C1054.41 443.13 1055.82 453.02 1056.71 461C1058.08 473.27 1058.15 477.89 1057.18 491C1056.55 499.52 1055.35 510.1 1054.52 514.5C1053.69 518.9 1051.71 527 1050.13 532.5C1048.55 538 1045.57 546.77 1043.52 552C1041.46 557.23 1038.41 564.2 1036.74 567.5C1035.07 570.8 1031.91 576.42 1029.72 580C1027.54 583.58 1022.73 590.55 1019.05 595.5C1015.37 600.45 1008.34 608.72 1003.43 613.88C998.52 619.03 991.13 625.94 987 629.22C982.88 632.51 978.38 636.15 977 637.33C975.63 638.5 970.9 641.65 966.5 644.32C962.1 646.99 954.67 651.12 950 653.5C945.33 655.87 938.8 658.95 935.5 660.33C932.2 661.7 925.23 664.18 920 665.84C914.77 667.49 907.13 669.52 903 670.35C898.88 671.19 890.33 672.41 884 673.07C877.16 673.78 865.4 674.06 855 673.76C845.38 673.48 833.23 672.49 828 671.56C822.77 670.63 813.77 668.49 808 666.8C802.23 665.11 793.67 662.16 789 660.25C784.33 658.33 777.35 655.18 773.5 653.25C769.65 651.32 762.9 647.44 758.5 644.63C754.1 641.82 749.83 638.98 749 638.31C748.17 637.65 744.8 635.11 741.5 632.66C738.2 630.21 732.4 625.34 728.6 621.85C724.81 618.36 717.8 610.77 713.03 605C708.26 599.23 701.84 590.67 698.76 586C695.67 581.33 690.46 572.1 687.17 565.5C683.89 558.9 679.18 547.42 676.71 540C674.24 532.58 671.23 520.88 670.03 514C668.76 506.77 667.61 494.97 667.29 486C666.91 474.95 667.22 466.48 668.38 456.5C669.27 448.8 671.16 438 672.56 432.5C673.97 427 676.24 419.13 677.62 415C678.99 410.88 682.26 403 684.88 397.5C687.49 392 692.03 383.45 694.96 378.5C697.89 373.55 702.13 367.08 704.39 364.12C706.65 361.17 709.53 357.34 710.78 355.62C712.04 353.91 716.85 348.68 721.48 344C726.1 339.32 731.15 334.34 732.69 332.91C734.24 331.49 737.98 328.33 741 325.89C744.02 323.45 750.33 318.95 755 315.89C759.67 312.84 766.42 308.73 770 306.78C773.58 304.82 780.77 301.42 786 299.21C791.23 297.01 800.9 293.61 807.5 291.67C814.1 289.73 824 287.44 829.5 286.59C835 285.73 840.63 284.86 842 284.65C843.38 284.44 851.7 284.21 860.5 284.13Z" /><path id="Path 4" class="shp1" d="M1456.75 382.04C1456.89 382.02 1458.46 382.66 1460.25 383.47C1462.79 384.63 1463.66 385.77 1464.24 388.72C1464.65 390.8 1464.99 401.05 1465.04 430.5L1462.27 433.23C1460.49 434.99 1458.43 435.96 1456.5 435.96C1454.75 435.96 1452.55 435.03 1451.22 433.73C1449 431.55 1448.95 431.05 1448.99 410.5C1449.01 398.95 1449.36 388.41 1449.76 387.07C1450.17 385.74 1451.85 384.07 1453.5 383.36C1455.15 382.66 1456.61 382.06 1456.75 382.04ZM1579.48 432.63C1580.59 432.96 1582.52 434.19 1583.78 435.36C1585.03 436.54 1586.04 438.51 1586.03 439.75C1586.01 440.99 1585.5 443.01 1584.9 444.25C1584.29 445.49 1577.32 452.91 1569.4 460.75C1556.91 473.11 1554.57 475.01 1551.75 475.04C1549.96 475.07 1547.52 474.28 1546.33 473.29C1545.14 472.31 1543.87 470.15 1543.51 468.5C1542.99 466.11 1543.44 464.78 1545.68 462.01C1547.23 460.08 1553.45 453.52 1559.5 447.41C1565.55 441.31 1572.06 435.35 1573.98 434.17C1576.08 432.87 1578.25 432.26 1579.48 432.63ZM1336.4 433.33C1340.09 433.83 1341.97 435.37 1355.21 448.69C1366.87 460.43 1369.93 464.07 1369.96 466.25C1369.98 467.76 1369.44 470.15 1368.75 471.56C1368.03 473.04 1366.23 474.46 1364.5 474.91C1362.68 475.4 1360.65 475.27 1359.34 474.6C1358.15 474 1354.55 470.97 1351.34 467.87C1348.13 464.77 1341.58 458.25 1336.79 453.37C1329.02 445.46 1328.08 444.1 1328.04 440.75C1328.01 438.2 1328.69 436.32 1330.15 434.88C1331.88 433.18 1333.09 432.88 1336.4 433.33ZM1455 458.11C1459.13 458.07 1466.78 458.69 1472 459.49C1477.22 460.3 1485.21 462.09 1489.75 463.48C1494.29 464.86 1498.22 466.45 1498.5 467C1498.78 467.55 1499.67 468 1500.5 468C1501.33 468 1505.04 469.89 1508.75 472.21C1512.46 474.52 1517.97 478.29 1521 480.58C1524.03 482.88 1528.76 487.17 1531.52 490.13C1534.28 493.08 1538.16 497.52 1540.13 500C1542.1 502.48 1545.31 507.43 1547.26 511C1549.21 514.58 1551.92 520.42 1553.29 524C1554.65 527.58 1556.25 532.52 1556.84 535C1557.43 537.48 1558.39 541.86 1558.96 544.75C1559.53 547.64 1560 555.51 1559.99 562.25C1559.99 568.99 1559.55 577.2 1559.02 580.5C1558.49 583.8 1557.19 589.2 1556.14 592.5C1555.08 595.8 1553.41 600.52 1552.42 603C1551.43 605.48 1548.61 610.65 1546.16 614.5C1543.7 618.35 1539.33 624.42 1536.44 628C1533.56 631.58 1528.17 637.42 1524.47 641C1520.77 644.58 1516.09 649.75 1514.06 652.5C1512.04 655.25 1508.99 660.88 1507.27 665C1505.56 669.13 1503.21 675.65 1502.06 679.5C1500.72 683.96 1498.79 687.78 1496.73 690.03C1494.95 691.98 1492.15 694.52 1490.5 695.68C1488.85 696.84 1484.8 698.33 1481.5 698.99C1477.49 699.79 1468.21 700.04 1453.5 699.76C1438.86 699.47 1430.33 698.89 1428 698.03C1426.08 697.31 1423.04 695.66 1421.25 694.36C1419.46 693.06 1416.89 690.31 1415.53 688.25C1414.17 686.19 1411.69 680.23 1410.02 675C1408.35 669.77 1405.97 663.49 1404.74 661.04C1403.51 658.58 1402.15 656.11 1401.71 655.54C1401.28 654.97 1399.8 652.92 1398.41 651C1397.02 649.08 1394.38 645.92 1392.54 644C1390.69 642.08 1386.55 637.98 1383.34 634.9C1380.13 631.82 1375.65 626.87 1373.38 623.9C1371.11 620.93 1367.26 614.67 1364.8 610C1362.35 605.33 1359.59 599.02 1358.67 596C1357.74 592.98 1356.32 587.35 1355.51 583.5C1354.7 579.65 1353.75 573.13 1353.41 569C1353.06 564.88 1353.28 556.66 1353.89 550.75C1354.56 544.24 1356.15 536.55 1357.91 531.25C1359.51 526.44 1361.82 520.25 1363.04 517.5C1364.25 514.75 1367.31 509.35 1369.82 505.5C1372.32 501.65 1378.01 494.75 1382.44 490.18C1386.87 485.6 1393.88 479.55 1398 476.74C1402.13 473.93 1408.88 469.99 1413 467.98C1417.13 465.98 1422.97 463.59 1426 462.68C1429.03 461.77 1435.1 460.38 1439.5 459.6C1443.9 458.82 1450.88 458.15 1455 458.11Z" /><path id="Path 5" class="shp2" d="M1463.5 463.67C1469.55 463.92 1474.72 464.45 1475 464.86C1475.28 465.27 1477.97 466.16 1481 466.84C1484.03 467.52 1488.53 468.99 1491 470.12C1493.47 471.25 1498.65 473.71 1502.5 475.6C1506.35 477.48 1511.86 480.82 1514.75 483.01C1517.64 485.2 1520.01 486.89 1520.02 486.75C1520.03 486.61 1523.07 489.46 1526.77 493.07C1530.47 496.68 1534.39 500.73 1535.48 502.07C1536.57 503.41 1539.27 508.21 1541.48 512.75C1543.69 517.29 1545.81 520.67 1546.19 520.25C1546.57 519.84 1547.17 521.08 1547.52 523C1547.86 524.92 1548.75 527.85 1549.5 529.5C1550.24 531.15 1551.52 536.1 1552.35 540.5C1553.18 544.9 1554.17 552.33 1554.54 557C1554.92 561.79 1554.74 569.54 1554.11 574.75C1553.5 579.84 1551.82 587.71 1550.38 592.25C1548.95 596.79 1546.86 602.3 1545.75 604.5C1544.65 606.7 1543.12 608.84 1542.37 609.25C1541.62 609.66 1541.01 610.79 1541.03 611.75C1541.04 612.71 1539.69 615.41 1538.03 617.75C1536.36 620.09 1533.76 623.43 1532.25 625.17C1530.74 626.91 1526.02 631.98 1521.77 636.42C1517.51 640.86 1512.48 646.75 1510.58 649.5C1508.68 652.25 1505.6 657.65 1503.73 661.5C1501.87 665.35 1499.81 670.19 1499.17 672.25C1498.53 674.31 1497.44 676.34 1496.75 676.75C1496.06 677.16 1494.6 679.24 1493.5 681.36C1492.4 683.48 1489.5 686.86 1487.05 688.86C1484.6 690.86 1482.11 692.95 1481.51 693.5C1480.91 694.05 1479.43 695.06 1478.21 695.75C1476.64 696.64 1470.05 697 1455.5 697C1436.33 697 1434.87 696.87 1433 695C1431.9 693.9 1430.55 693 1430 693C1429.45 693 1428.98 692.44 1428.96 691.75C1428.93 691.06 1427.02 688.87 1424.71 686.89C1422.17 684.7 1419.43 680.94 1417.8 677.39C1416.31 674.15 1414.18 669.48 1413.05 667C1411.93 664.52 1410.11 661.15 1409 659.5C1407.9 657.85 1406.32 655.04 1405.5 653.25C1404.67 651.46 1403.66 650.02 1403.25 650.04C1402.84 650.06 1401.26 648.26 1399.75 646.04C1398.24 643.82 1394.31 639.19 1391.03 635.75C1387.75 632.31 1382.97 626.8 1380.41 623.5C1377.86 620.2 1373.68 613.23 1371.13 608.01C1368.58 602.78 1365.94 597.95 1365.25 597.26C1364.56 596.57 1363.04 591.84 1361.87 586.75C1360.7 581.66 1359.57 576.38 1359.35 575C1359.14 573.63 1359.01 568.45 1359.06 563.5C1359.12 558.55 1359.29 552.02 1359.44 549C1359.59 545.98 1359.95 543.05 1360.24 542.5C1360.54 541.95 1361.58 538.58 1362.55 535C1363.52 531.42 1365.18 526.48 1366.24 524C1367.29 521.52 1369.02 517.59 1370.08 515.25C1371.13 512.91 1372.45 511 1373 511C1373.55 511 1373.78 510.55 1373.5 510C1373.22 509.45 1373.45 509 1374 509C1374.55 509 1374.8 508.66 1374.56 508.25C1374.32 507.84 1376.36 504.57 1379.08 501C1381.81 497.43 1384.03 494.84 1384.02 495.25C1384.01 495.66 1386.39 493.64 1389.31 490.75C1392.23 487.86 1396.82 483.81 1399.53 481.75C1402.23 479.69 1405.02 478 1405.72 478C1406.42 478 1407 477.55 1407 477C1407 476.45 1407.34 476.05 1407.75 476.12C1408.16 476.18 1409.23 476.18 1410.13 476.12C1411.03 476.05 1412.83 475.09 1414.13 473.97C1415.43 472.85 1418.08 471.67 1420 471.34C1421.92 471.01 1423.95 470.39 1424.5 469.96C1425.05 469.54 1428.2 468.42 1431.5 467.47C1434.8 466.53 1438.14 465.34 1438.93 464.84C1439.72 464.33 1441.3 464.18 1442.43 464.5C1443.57 464.82 1446.3 464.66 1448.5 464.15C1450.7 463.64 1457.45 463.42 1463.5 463.67Z" /><path id="Path 6" class="shp1" d="M1456.95 484C1460.23 484 1461.48 484.57 1463.5 487C1464.88 488.65 1466.01 491.24 1466.02 492.75C1466.03 494.46 1464.99 496.53 1463.27 498.22C1461.75 499.71 1459.15 501.22 1457.5 501.57C1455.03 502.1 1453.93 501.67 1451.25 499.11C1448.75 496.72 1448.01 495.18 1448.05 492.45C1448.08 490.1 1448.9 488.09 1450.5 486.45C1452.27 484.65 1453.98 484 1456.95 484Z" /><path id="Path 7" class="shp3" d="M1457.25 486.08C1458.21 486.04 1460.13 487.13 1461.5 488.5C1462.88 489.88 1463.99 491.79 1463.98 492.75C1463.97 493.71 1462.95 495.52 1461.73 496.78C1460.5 498.03 1458.38 499.02 1457 498.99C1455.63 498.96 1453.49 498.05 1452.25 496.97C1451.01 495.89 1449.99 493.99 1449.98 492.75C1449.97 491.51 1450.54 489.76 1451.23 488.87C1451.93 487.97 1453.17 486.99 1454 486.69C1454.83 486.4 1456.29 486.12 1457.25 486.08Z" /><path id="Path 8" class="shp1" d="M1489.72 491.01C1491.25 491.49 1492.83 491.57 1493.23 491.19C1493.63 490.81 1494.53 491.01 1495.23 491.63C1495.93 492.25 1497.63 493.1 1499 493.51C1500.38 493.93 1503.7 496.12 1506.4 498.38C1509.09 500.65 1514.53 506.55 1518.49 511.5C1522.45 516.45 1527.54 523.88 1529.79 528C1532.28 532.55 1534.36 538.06 1535.08 542C1535.74 545.58 1536.49 550.75 1536.75 553.5C1537.12 557.42 1536.67 559.69 1534.69 564C1532.77 568.19 1531.49 569.69 1529.33 570.29C1527.76 570.73 1525.16 570.64 1523.5 570.09C1521.85 569.55 1519.61 567.85 1518.53 566.31C1517.44 564.76 1515.49 561.25 1514.18 558.5C1512.87 555.75 1511.21 551.25 1510.49 548.5C1509.77 545.75 1509.41 543.05 1509.7 542.5C1509.98 541.95 1509.64 540.15 1508.95 538.5C1508.25 536.85 1506.66 534.38 1505.41 533C1504.16 531.63 1503 529.89 1502.82 529.15C1502.64 528.41 1499.84 525.26 1496.6 522.15C1493.35 519.04 1488.63 514.33 1486.1 511.67C1483.57 509.02 1480.96 505.64 1480.3 504.17C1479.63 502.7 1479.09 500.38 1479.1 499C1479.1 497.3 1480.36 495.48 1483.02 493.32C1486.32 490.65 1487.39 490.29 1489.72 491.01Z" /><path id="Path 9" class="shp3" d="M1488 493C1488.28 492.97 1490.97 494.06 1494 495.42C1497.03 496.79 1501.08 499.28 1503 500.97C1504.92 502.66 1508.9 506.4 1511.83 509.27C1514.75 512.15 1519.06 517.65 1521.38 521.5C1523.71 525.35 1526.42 530.52 1527.4 533C1528.38 535.48 1529.88 539.52 1530.72 542C1531.62 544.63 1532.31 550.38 1532.38 555.83C1532.49 564 1532.25 565.38 1530.5 566.92C1529.02 568.22 1527.59 568.52 1525 568.05C1522.67 567.62 1521.09 566.59 1520.26 564.96C1519.59 563.61 1519.02 560.92 1519 559C1518.98 557.08 1518.29 552.35 1517.47 548.5C1516.65 544.65 1514.6 538.58 1512.92 535C1511.23 531.42 1509.54 528.27 1509.15 528C1508.76 527.73 1507.1 525.67 1505.47 523.42C1503.84 521.18 1500.14 517.24 1497.25 514.67C1494.36 512.1 1491.66 510.01 1491.25 510.03C1490.84 510.05 1489.38 509.16 1488 508.06C1486.63 506.96 1484.7 505.26 1483.73 504.28C1482.75 503.3 1481.86 501.3 1481.75 499.83C1481.6 497.87 1482.33 496.62 1484.52 495.12C1486.16 493.99 1487.72 493.04 1488 493Z" /><path id="Path 10" class="shp1" d="M1326 554L1328.53 556.75C1329.93 558.26 1331.07 560.63 1331.07 562C1331.07 563.38 1329.93 565.74 1326 570L1305 570C1293.45 570 1282.99 569.62 1281.75 569.15C1280.51 568.68 1278.86 566.77 1278.09 564.9C1276.82 561.84 1276.86 561.18 1278.53 558.3C1279.55 556.54 1281.08 554.9 1281.94 554.66C1282.8 554.43 1293.06 554.18 1326 554ZM1610 554.09C1630.92 554.04 1631.56 554.1 1633.78 556.27C1635.29 557.75 1636.05 559.68 1636.05 562C1636.05 564.48 1635.31 566.16 1633.52 567.75C1631.08 569.93 1630.34 570 1610.5 570C1599.17 570 1588.88 569.55 1587.5 569C1586.13 568.45 1584.38 566.54 1583.62 564.75C1582.44 561.98 1582.45 561.07 1583.64 558.55C1584.41 556.93 1585.82 555.27 1586.77 554.87C1587.72 554.47 1598.17 554.12 1610 554.09Z" /><path id="Path 12" class="shp0" d="M1031.96 689.96C1032.26 689.93 1033.01 690.49 1033.62 691.21C1034.24 691.92 1036.55 695.88 1038.76 700C1040.97 704.13 1044.97 711.1 1047.64 715.5C1050.32 719.9 1053.3 724.63 1054.27 726C1055.23 727.38 1059.67 733.45 1064.12 739.5C1068.58 745.55 1074.15 752.75 1076.51 755.5C1078.87 758.25 1084.78 764.56 1089.65 769.52C1094.52 774.48 1101.88 781.5 1106 785.12C1110.13 788.74 1118.22 795.18 1124 799.44C1129.78 803.7 1137.88 809.21 1142 811.68C1146.13 814.15 1150.17 816.58 1151 817.07C1151.83 817.56 1155.65 819.84 1159.5 822.12C1163.35 824.41 1167.63 826.87 1169 827.59C1170.38 828.31 1174.88 830.54 1179 832.55C1183.13 834.56 1190.78 837.74 1196 839.62C1201.22 841.5 1208.88 843.91 1213 844.97C1217.13 846.03 1225.22 847.7 1231 848.67C1238.47 849.94 1246.84 850.45 1260 850.44C1270.28 850.43 1281.83 849.87 1286 849.16C1290.13 848.46 1298.22 846.8 1304 845.47C1309.78 844.13 1318.33 841.64 1323 839.94C1327.67 838.24 1337.35 833.96 1344.5 830.45C1351.65 826.93 1362 821.09 1367.5 817.45C1373 813.82 1380.65 808.34 1384.5 805.26C1388.35 802.18 1392.06 799.29 1392.75 798.83C1393.46 798.36 1394.98 798.5 1396.25 799.16C1397.49 799.8 1401.67 803.06 1405.53 806.41C1409.4 809.76 1414.76 814.3 1417.43 816.5C1420.11 818.7 1422.79 820.97 1423.4 821.54C1424 822.12 1428.78 826.14 1434 830.49C1439.22 834.83 1445.56 840.21 1448.08 842.45C1450.59 844.68 1454.59 848.08 1456.96 850C1459.34 851.92 1463.4 855.3 1466 857.5C1468.59 859.7 1472.84 863.3 1475.44 865.5C1478.04 867.7 1480.8 870.06 1481.58 870.75C1482.36 871.44 1483 872.67 1483 873.5C1483 874.33 1476.81 881.22 1469.25 888.83C1461.69 896.43 1452.35 905.28 1448.5 908.5C1444.65 911.71 1440.83 914.93 1440 915.66C1439.17 916.38 1435.58 919.37 1432 922.3C1428.42 925.22 1421 930.99 1415.5 935.11C1410 939.23 1403.41 943.93 1400.85 945.55C1398.29 947.17 1392.32 951.09 1387.6 954.25C1382.87 957.41 1378.78 960 1378.5 960C1378.22 960 1374.51 962.1 1370.25 964.67C1365.99 967.23 1357.1 972.21 1350.5 975.73C1343.9 979.24 1329.05 986.78 1317.5 992.49C1305.95 998.19 1292 1004.52 1286.5 1006.55C1281 1008.58 1271.33 1011.52 1265 1013.08C1258.67 1014.64 1247.42 1016.64 1240 1017.54C1230.63 1018.66 1222.98 1018.97 1215 1018.53C1208.67 1018.19 1199.67 1017.46 1195 1016.91C1190.33 1016.36 1183.35 1015.19 1179.5 1014.31C1175.65 1013.43 1168.22 1011.44 1163 1009.9C1157.78 1008.35 1150.35 1005.91 1146.5 1004.48C1142.65 1003.05 1134.78 999.64 1129 996.89C1123.22 994.15 1113.86 989.11 1108.19 985.7C1102.52 982.29 1093.75 976.46 1088.69 972.74C1083.64 969.02 1079.16 965.99 1078.75 965.99C1078.34 966 1078 966.45 1078 967C1078 967.55 1080.22 975.54 1082.93 984.75C1085.64 993.96 1089.66 1008.92 1091.86 1018C1094.07 1027.08 1096.8 1039.22 1097.93 1045C1099.07 1050.78 1100.69 1060 1101.53 1065.5C1102.37 1071 1103.5 1079.33 1104.04 1084C1104.58 1088.67 1105.22 1093.63 1105.48 1095C1105.73 1096.38 1106.46 1102.9 1107.08 1109.5C1107.71 1116.1 1108.51 1139.21 1109.5 1200.22L1116.5 1203.95C1120.35 1206 1128.37 1210.34 1134.32 1213.59C1140.28 1216.84 1146.8 1220.49 1148.82 1221.71C1150.85 1222.93 1153.85 1224.67 1155.5 1225.58C1157.15 1226.49 1166.15 1232.38 1175.5 1238.66C1184.85 1244.94 1194.12 1251.3 1196.09 1252.79C1198.07 1254.28 1202.35 1257.48 1205.59 1259.91C1208.84 1262.33 1212.23 1265.03 1213.13 1265.91C1214.03 1266.78 1220.33 1272.1 1227.13 1277.73C1233.93 1283.36 1247.18 1295.73 1256.57 1305.23C1265.95 1314.73 1277.6 1327.22 1282.44 1333C1287.29 1338.78 1292.52 1345.08 1294.07 1347C1295.63 1348.92 1299.06 1353.29 1301.7 1356.69C1304.34 1360.1 1308 1365.05 1309.84 1367.69C1311.68 1370.34 1315.43 1375.65 1318.17 1379.5C1320.91 1383.35 1328.45 1395.05 1334.92 1405.5C1341.38 1415.95 1349.63 1429.45 1353.24 1435.5C1356.85 1441.55 1360.97 1448.53 1362.39 1451C1363.82 1453.47 1367.03 1459.1 1369.53 1463.5C1372.03 1467.9 1374.52 1472.17 1375.05 1473C1375.58 1473.83 1377.87 1477.88 1380.12 1482C1382.38 1486.13 1389.5 1499.85 1395.95 1512.5C1402.4 1525.15 1409.83 1540.22 1412.46 1546C1415.1 1551.78 1418.71 1559.65 1420.49 1563.5C1422.27 1567.35 1427.02 1578.38 1431.04 1588C1435.06 1597.63 1440.32 1610.67 1442.73 1617C1445.15 1623.33 1448.69 1633 1450.61 1638.5C1452.53 1644 1454.49 1649.4 1454.96 1650.5C1455.43 1651.6 1456.05 1653.17 1456.32 1654C1456.6 1654.83 1456.53 1656.04 1456.16 1656.71C1455.8 1657.37 1452.58 1659.11 1449 1660.57C1445.42 1662.03 1436.2 1665.67 1428.5 1668.66C1420.8 1671.66 1408.42 1676.36 1401 1679.11C1393.58 1681.86 1386.15 1684.74 1384.5 1685.52C1382.85 1686.29 1376.78 1688.79 1371 1691.06C1365.22 1693.34 1353.53 1697.83 1345 1701.05C1336.47 1704.27 1320.72 1710.35 1310 1714.56C1299.28 1718.78 1284.76 1724.43 1277.75 1727.11C1270.74 1729.8 1264.1 1732 1263 1732C1261.38 1732 1260.33 1730.15 1257.45 1722.25C1255.49 1716.89 1252.51 1709.13 1250.83 1705C1249.15 1700.88 1247.18 1696.15 1246.46 1694.5C1245.74 1692.85 1244.27 1689.25 1243.19 1686.5C1242.12 1683.75 1238.88 1676.55 1236 1670.5C1233.12 1664.45 1228.88 1655.67 1226.57 1651C1224.26 1646.33 1219.74 1637.55 1216.52 1631.5C1213.3 1625.45 1207.77 1615.55 1204.23 1609.5C1200.69 1603.45 1195.3 1594.45 1192.25 1589.5C1189.2 1584.55 1183.09 1575.1 1178.67 1568.5C1174.25 1561.9 1166.55 1550.88 1161.55 1544C1156.55 1537.13 1148 1525.88 1142.56 1519C1137.11 1512.13 1131.85 1505.6 1130.86 1504.5C1129.87 1503.4 1124 1496.65 1117.82 1489.5C1111.64 1482.35 1097.34 1467.27 1086.04 1455.99C1074.74 1444.71 1061.67 1432.08 1057 1427.92C1052.33 1423.76 1044.22 1416.79 1039 1412.43C1033.78 1408.06 1027.92 1403.25 1026 1401.72C1024.08 1400.19 1019.18 1396.37 1015.13 1393.22C1011.07 1390.07 1006.53 1386.6 1005.03 1385.5C1003.53 1384.4 996.72 1379.78 989.9 1375.23C983.08 1370.68 976.43 1366.18 975.13 1365.23C973.83 1364.28 970.01 1361.98 966.63 1360.13C963.26 1358.27 959.83 1356.18 959 1355.47C958.17 1354.77 951.65 1350.93 944.5 1346.93C937.35 1342.93 927 1337.35 921.5 1334.52C916 1331.69 904.08 1325.97 895 1321.8C885.92 1317.64 872.65 1311.87 865.5 1308.98C858.35 1306.09 846.2 1301.49 838.5 1298.77C830.8 1296.04 818.2 1291.85 810.5 1289.46C802.8 1287.07 791.47 1283.85 785.33 1282.31C779.19 1280.76 773.68 1279.05 773.09 1278.5C772.5 1277.95 771.11 1266.27 770 1252.5C768.89 1238.75 767.07 1216.03 765.95 1202C764.84 1187.97 763.03 1165.47 761.95 1152C760.86 1138.53 759.29 1119.4 758.45 1109.5C757.62 1099.6 756.06 1080.03 754.98 1066C753.91 1051.97 752.83 1038.03 752.58 1035C752.34 1031.97 750.97 1014.42 749.54 996C748.1 977.58 746.72 961.49 746.47 960.25C746.15 958.72 745.28 958 743.75 958C742.51 957.99 736.55 959.74 730.5 961.87C724.45 964.01 717.02 966.69 714 967.84C710.98 968.99 701.75 973.36 693.5 977.54C685.25 981.72 675.44 987.02 671.71 989.32C667.97 991.62 657.73 998.79 648.96 1005.25C638.13 1013.22 628.72 1021.26 619.71 1030.25C612.39 1037.54 603.71 1046.88 600.42 1051C597.12 1055.13 591.92 1061.88 588.87 1066C585.82 1070.13 581.68 1076.09 579.66 1079.25C577.65 1082.41 576 1085.22 576 1085.5C576 1085.78 574.93 1087.46 573.62 1089.25C572.31 1091.04 567.39 1100.38 562.7 1110C558 1119.63 552.03 1133.8 549.43 1141.5C546.82 1149.2 544.15 1155.95 543.49 1156.5C542.69 1157.17 537.02 1157.1 526.4 1156.28C517.65 1155.61 495.43 1153.92 477 1152.54C458.57 1151.15 437.88 1149.53 431 1148.93C424.13 1148.34 417.15 1147.72 415.5 1147.56C413.5 1147.37 412.37 1146.65 412.12 1145.39C411.91 1144.35 412.29 1138.33 412.97 1132C413.64 1125.67 414.83 1116.67 415.61 1112C416.39 1107.33 417.73 1100.13 418.57 1096C419.42 1091.88 421.23 1083.78 422.59 1078C423.95 1072.22 426.67 1062.33 428.62 1056C430.58 1049.67 433.54 1040.67 435.21 1036C436.88 1031.33 440.04 1023.22 442.24 1018C444.43 1012.77 448.59 1003.77 451.47 998C454.35 992.23 458.86 983.45 461.49 978.5C464.12 973.55 468.17 966.58 470.5 963C472.82 959.42 476.42 953.8 478.49 950.5C480.57 947.2 485.45 940.23 489.34 935C493.24 929.77 498.24 923.3 500.46 920.62C502.68 917.93 508.27 911.41 512.87 906.12C517.48 900.83 526.74 891.1 533.46 884.5C540.18 877.9 548.34 870.19 551.59 867.36C554.84 864.54 560.65 859.68 564.5 856.56C568.35 853.43 575.77 847.66 581 843.72C586.23 839.79 596.13 832.84 603 828.28C609.88 823.72 616.85 819.14 618.5 818.1C620.15 817.06 626.67 813.2 633 809.52C639.33 805.84 645.17 802.45 646 801.98C646.83 801.51 654.48 797.57 663 793.22C671.52 788.87 683.9 782.96 690.5 780.08C697.1 777.21 703.85 774.25 705.5 773.52C707.15 772.79 710.3 771.44 712.5 770.52C714.7 769.6 723.02 766.46 731 763.55C738.98 760.63 753.38 755.78 763 752.76C772.63 749.74 782.98 746.55 786 745.69C789.02 744.82 798.92 742.32 808 740.13C817.08 737.93 829 735.24 834.5 734.14C840 733.04 846.98 731.7 850 731.17C853.76 730.5 856.13 730.53 857.5 731.25C858.6 731.84 864 736.41 869.49 741.41C874.99 746.41 882.41 753.2 885.97 756.5C889.54 759.8 896.07 765.89 900.48 770.04C904.89 774.19 910.52 779.33 913 781.47C915.48 783.6 922.88 790.33 929.46 796.42C936.03 802.52 942.86 808.85 944.63 810.5C946.4 812.15 951.77 817.1 956.56 821.5C961.36 825.9 966.12 830.06 967.14 830.75C968.73 831.82 969.2 831.67 970.41 829.75C971.18 828.51 973.68 823 975.96 817.5C978.24 812 981.27 804.8 982.7 801.5C984.13 798.2 986.51 792.8 988 789.5C989.49 786.2 991.95 780.58 993.46 777C994.98 773.42 996.6 769.6 997.07 768.5C997.53 767.4 999.31 763.35 1001.02 759.5C1002.74 755.65 1008.67 741.92 1014.22 729C1019.76 716.08 1025.9 702.01 1027.85 697.75C1029.81 693.49 1031.66 689.98 1031.96 689.96Z" /><path id="Path 14" class="shp1" d="M1488.84 705.5L1491.45 708C1493.15 709.64 1494.04 711.54 1494.01 713.5C1493.99 715.15 1493.64 716.98 1493.23 717.56C1492.83 718.14 1491.38 719.38 1490 720.32C1487.78 721.82 1484.07 722.01 1457 722C1428.28 721.99 1426.31 721.88 1423.25 720C1420.46 718.28 1419.97 717.38 1419.77 713.58C1419.57 709.69 1419.9 708.92 1422.52 707.08C1425.41 705.07 1426.49 705.01 1488.84 705.5ZM1457 727.08C1485.8 727.01 1487.68 727.12 1490.75 729C1493.47 730.68 1494 731.61 1494.03 734.75C1494.04 737.51 1493.36 739.16 1488.84 743.5L1457.42 743.75C1427.44 743.99 1425.86 743.91 1423 742C1420.46 740.31 1419.99 739.34 1419.97 735.75C1419.95 732.91 1420.53 730.96 1421.72 729.88C1422.7 728.99 1424.17 728.01 1425 727.71C1425.83 727.41 1440.22 727.12 1457 727.08Z" /><path id="Path 15" class="shp2" d="M1456.5 730.4C1465.3 730.4 1469.13 730.56 1465 730.74C1460.88 730.93 1453.67 730.93 1449 730.74C1444.33 730.56 1447.7 730.41 1456.5 730.4Z" /><path id="Path 16" class="shp1" d="M1457.5 749.12C1467.86 749.02 1469.94 749.28 1472.75 751C1475.76 752.85 1475.98 753.35 1475.75 757.75C1475.52 762.08 1475.19 762.66 1472 764.25C1469.33 765.58 1466.01 765.99 1458 765.99C1452.22 765.98 1445.92 765.73 1444 765.43C1441.52 765.04 1439.99 764.03 1438.75 761.94C1437.79 760.32 1436.99 757.99 1436.97 756.75C1436.96 755.51 1437.97 753.53 1439.22 752.35C1440.48 751.17 1442.4 749.98 1443.5 749.72C1444.6 749.45 1450.9 749.18 1457.5 749.12Z" /><path id="Path 19" class="shp0" d="M774.86 1308.99C775.76 1308.98 778.52 1309.59 781 1310.35C783.48 1311.1 787.98 1312.45 791 1313.34C794.02 1314.23 802.8 1316.94 810.5 1319.36C818.2 1321.79 828.1 1325.11 832.5 1326.76C836.9 1328.4 844.33 1331.18 849 1332.93C853.67 1334.69 861.1 1337.73 865.5 1339.69C869.9 1341.65 875.75 1344.32 878.5 1345.61C881.25 1346.9 883.84 1347.97 884.25 1347.98C884.66 1347.99 891.19 1351.08 898.75 1354.84C906.31 1358.61 916.55 1363.95 921.5 1366.71C926.45 1369.48 932.75 1373 935.5 1374.53C938.25 1376.06 945 1380.1 950.5 1383.49C956 1386.88 964.77 1392.47 970 1395.9C975.23 1399.34 980.07 1402.9 980.77 1403.82C981.46 1404.75 982.03 1407.86 982.02 1410.75C982.01 1413.64 981.33 1421.96 980.52 1429.25C979.7 1436.54 978.13 1447.45 977.03 1453.5C975.94 1459.55 974.1 1468.55 972.95 1473.5C971.81 1478.45 969.97 1486.1 968.86 1490.5C967.76 1494.9 965.3 1503.67 963.39 1510C961.47 1516.33 959.52 1522.4 959.04 1523.5C958.55 1524.6 956.93 1528.88 955.44 1533C953.94 1537.13 950.72 1545.22 948.27 1551C945.83 1556.78 940.28 1568.47 935.94 1577C931.6 1585.53 925.98 1595.65 923.45 1599.5C920.92 1603.35 917.65 1608.64 916.17 1611.25C914.7 1613.86 913.16 1616 912.75 1616C912.34 1616 912 1616.45 912 1617C912 1617.55 908.33 1622.84 903.84 1628.75C899.35 1634.66 891.98 1643.78 887.46 1649C882.95 1654.22 874.58 1663.08 868.88 1668.67C863.17 1674.27 856.25 1680.87 853.5 1683.34C850.75 1685.81 847.07 1688.88 845.31 1690.16C843.56 1691.45 837.93 1695.66 832.81 1699.52C827.69 1703.38 821.7 1707.71 819.5 1709.14C817.3 1710.57 813.02 1713.31 810 1715.22C806.98 1717.13 801.35 1720.41 797.5 1722.51C793.65 1724.61 788.48 1727.43 786 1728.77C783.52 1730.11 776.1 1733.68 769.5 1736.71C762.9 1739.74 753.23 1743.8 748 1745.71C742.77 1747.63 733.77 1750.68 728 1752.47C722.23 1754.27 713.9 1756.68 709.5 1757.83C705.1 1758.98 696.77 1760.85 691 1761.99C682 1763.78 680.21 1763.88 678.5 1762.71C677.4 1761.96 670.88 1750.84 664 1737.99C657.13 1725.15 649.16 1710.33 646.3 1705.07C643.44 1699.81 639.96 1693.25 638.57 1690.5C637.18 1687.75 634.54 1682.8 632.72 1679.5C630.89 1676.2 627 1669 624.07 1663.5C621.14 1658 617.5 1651.25 615.98 1648.5C614.47 1645.75 612.95 1642.49 612.61 1641.25C612.09 1639.34 612.87 1638.45 617.75 1635.37C620.91 1633.38 627.1 1629.34 631.5 1626.41C635.9 1623.47 640.4 1620.27 641.5 1619.29C642.61 1618.3 645.98 1615.61 649 1613.31C652.03 1611 659.45 1604.7 665.51 1599.31C671.56 1593.91 679.39 1586.35 682.92 1582.5C686.44 1578.65 691.41 1573.25 693.94 1570.5C696.48 1567.75 701.96 1561 706.11 1555.5C710.26 1550 716.14 1541.9 719.18 1537.5C722.21 1533.1 725.91 1527.25 727.4 1524.5C728.89 1521.75 731.94 1516.35 734.18 1512.5C736.41 1508.65 740.61 1500.33 743.5 1494C746.39 1487.67 750.6 1477.33 752.85 1471C755.1 1464.67 758.27 1454.55 759.89 1448.5C761.52 1442.45 764.01 1431.88 765.43 1425C766.85 1418.13 768.96 1405.53 770.11 1397C771.8 1384.54 772.31 1374.39 772.72 1345.25C773.17 1312.52 773.38 1309 774.86 1308.99Z" /></g></svg>